# xmcd
#
# Track frame offsets: 
#        150
#        13863
#        35182
#        56595
#        79301
#        99481
#        125330
#        142471
#        163921
#        179032
#        204845
#        223757
#        238424
#        258476
#
# Disc length: 3661 seconds
#
# Revision: 3
# Processed by: cddbd v1.5.2PL0 Copyright (c) Steve Scherf et al.
# Submitted via: ExactAudioCopy v1.1
#
DISCID=e00e4b0e
DTITLE=Sharrie Williams - Hard Drivin' Woman
DYEAR=2004
DGENRE=Blues
TTITLE0=Hard Drivin' Woman
TTITLE1=Travellin'
TTITLE2=Blues Lover
TTITLE3=Crazy For You
TTITLE4=My Best Friend Is Gone
TTITLE5=I'd Rather Go Blind
TTITLE6=Big Fall
TTITLE7=I'll Give You Me
TTITLE8=The Glory Train
TTITLE9=Selfish
TTITLE10=How Much Can A Woman Take
TTITLE11=Just You And Me
TTITLE12=My Old Man
TTITLE13=Gospel Blues
EXTD=YEAR: 2001
EXTT0=
EXTT1=
EXTT2=
EXTT3=
EXTT4=
EXTT5=
EXTT6=
EXTT7=
EXTT8=
EXTT9=
EXTT10=
EXTT11=
EXTT12=
EXTT13=
PLAYORDER=
